PathFileType	4	(X/Y/Z)	c:/Users/goper/Files/vsCode/490R/osim_files/C03/C03_SSW_01.trc
DataRate	CameraRate	NumFrames	NumMarkers	Units                	OrigDataRate	OrigDataStartFrame	OrigNumFrames
250.00	250.00	7	36	mm	250.0	1755	2339
                Frame#	Time	LPSIS			LASIS			LTH1			LTH2			LTH3			LTH4			LLFE			LMFE			LSH1			LSH2			LSH3			LSH4			LLMAL			LMMAL			LCAL			LMTP5			LTOE			LMTP1			RPSIS			RASIS			RTH1			RTH2			RTH3			RTH4			RLFE			RMFE			RSH1			RSH2			RSH3			RSH4			RLMAL			RMMAL			RCAL			RMTP1			RTOE			RMTP5		
		X1	Y1	Z1	X2	Y2	Z2	X3	Y3	Z3	X4	Y4	Z4	X5	Y5	Z5	X6	Y6	Z6	X7	Y7	Z7	X8	Y8	Z8	X9	Y9	Z9	X10	Y10	Z10	X11	Y11	Z11	X12	Y12	Z12	X13	Y13	Z13	X14	Y14	Z14	X15	Y15	Z15	X16	Y16	Z16	X17	Y17	Z17	X18	Y18	Z18	X19	Y19	Z19	X20	Y20	Z20	X21	Y21	Z21	X22	Y22	Z22	X23	Y23	Z23	X24	Y24	Z24	X25	Y25	Z25	X26	Y26	Z26	X27	Y27	Z27	X28	Y28	Z28	X29	Y29	Z29	X30	Y30	Z30	X31	Y31	Z31	X32	Y32	Z32	X33	Y33	Z33	X34	Y34	Z34	X35	Y35	Z35	X36	Y36	Z36

1755	7.01600	-2301.37671	1022.52795	310.02808	-2484.60205	972.07654	326.21829	-2491.20630	619.77936	381.14294	-2520.55591	565.64984	372.57150	-2561.45728	651.19659	377.63611	-2582.13110	593.65613	369.26959	-2571.07202	499.39822	361.89011	-2577.99048	493.75522	250.52391	-2553.40039	308.75674	368.45520	-2570.56396	265.57114	365.67178	-2609.46143	327.81281	377.96478	-2621.06226	281.30157	375.67419	-2659.18188	115.31802	349.97989	-2679.98560	133.85692	275.02328	-2602.66772	62.97374	312.76590	-2802.15283	87.42551	375.75568	-2827.45752	117.00769	323.80725	-2811.48828	97.50156	284.43335	-2295.97095	1020.13593	198.69955	-2458.94263	972.70599	122.08171	-2249.41943	625.17810	132.64920	-2234.78442	566.40375	148.04395	-2308.54199	609.99023	110.22073	-2303.57471	549.02759	119.78822	-2281.68726	480.16611	142.25154	-2277.26074	504.03229	252.83424	-2149.93823	321.35370	143.91992	-2142.90869	274.82462	148.40024	-2208.61230	301.33633	134.26425	-2192.16846	261.43515	139.28397	-2149.09424	113.37657	172.40202	-2161.61548	114.05025	250.70810	-2073.02026	81.88729	204.47214	-2275.84375	48.67435	247.37975	-2305.27173	62.21773	208.92026	-2251.76465	40.04489	141.90858
1756	7.02000	-2307.25928	1021.17761	310.53363	-2490.42065	970.94086	326.37122	-2494.42285	617.62701	381.32510	-2523.44873	563.42169	373.09183	-2564.87329	648.63519	378.02014	-2585.36987	591.06464	370.06363	-2574.97876	497.21500	362.52524	-2581.18848	491.68704	250.88432	-2561.22632	306.42212	368.80460	-2579.82861	263.64780	365.81995	-2617.09888	326.79993	378.09894	-2629.81543	280.51700	375.77762	-2671.48633	115.82644	349.75305	-2691.51440	134.64247	274.71436	-2616.78784	61.65339	313.07120	-2816.36450	91.43539	374.97107	-2840.44946	121.52151	322.44366	-2823.72998	101.52407	283.09030	-2301.49585	1019.19696	199.33324	-2464.79150	972.41870	122.25319	-2253.54370	624.99890	132.99037	-2238.75269	566.58569	148.51665	-2312.46899	609.70795	110.35066	-2306.38770	548.83270	120.16809	-2285.23413	480.07062	142.44264	-2281.28784	503.72354	252.97920	-2152.07886	322.10873	144.26898	-2144.48584	275.74222	148.75336	-2210.55566	301.58722	134.41856	-2193.84888	261.83829	139.47522	-2149.59668	114.01781	172.68742	-2162.67358	114.55448	250.92815	-2073.38745	82.93797	204.77678	-2276.07642	48.62463	247.40318	-2305.45581	62.03020	208.88327	-2251.77490	40.09391	141.95160
1757	7.02400	-2313.29150	1019.79224	310.95569	-2496.37109	969.83484	326.52216	-2497.70703	615.57617	381.78934	-2526.29736	561.13483	373.35626	-2568.38867	646.05481	378.78387	-2588.48120	588.43311	370.98221	-2578.13330	495.00339	362.83755	-2584.52661	489.63498	251.13144	-2569.21143	304.17709	369.03845	-2588.51123	261.89566	365.96228	-2624.48853	325.86826	378.26221	-2638.30859	279.83887	375.86356	-2683.65552	116.42684	349.69388	-2703.09985	135.47708	274.43292	-2630.47949	60.59635	313.37094	-2829.14624	95.50471	373.67966	-2852.34448	126.14896	321.37372	-2836.16699	105.65231	281.88818	-2307.05103	1018.13818	199.72946	-2470.01831	971.63232	122.32703	-2257.71362	625.26660	133.52586	-2242.13696	566.18011	149.31360	-2316.48657	609.50409	110.38037	-2311.28955	548.46283	119.71906	-2288.72192	479.87213	142.49124	-2285.74487	503.14310	253.12573	-2154.76904	322.70081	144.70177	-2146.34985	276.56763	149.16992	-2212.61890	301.99139	134.69177	-2195.56396	262.32294	139.75069	-2150.14990	114.77621	172.94196	-2163.15723	115.42020	251.64790	-2073.95312	84.01704	205.07103	-2276.23242	48.55935	247.40665	-2305.71729	61.87865	208.84344	-2251.78418	40.12975	141.98610
1758	7.02800	-2318.97705	1018.60022	311.58051	-2502.80420	969.21118	326.47299	-2501.15234	613.45465	382.16418	-2529.49243	559.08954	374.20584	-2571.95703	643.47424	379.77414	-2591.70874	585.69696	371.90146	-2581.66699	492.87994	363.29160	-2587.66284	487.66519	251.35744	-2577.05249	302.18539	369.22977	-2597.31299	260.07635	365.93390	-2631.83228	325.02655	378.39890	-2646.66162	279.28830	375.92523	-2695.92456	117.00677	349.84705	-2714.83374	136.36163	274.41327	-2643.82251	59.74299	313.62424	-2842.11963	99.45162	372.74695	-2864.11328	130.71089	320.18494	-2848.79321	109.91321	280.99890	-2312.46289	1017.19775	200.29634	-2475.25708	970.55133	122.13068	-2262.10669	625.33441	133.98019	-2246.95874	566.66980	149.22946	-2320.52832	609.20868	110.42216	-2314.27051	548.26074	120.12673	-2292.20386	479.39233	142.49612	-2290.28735	502.56891	253.42372	-2156.94409	323.57404	145.09386	-2148.19653	277.44373	149.54089	-2215.00586	302.70203	134.85594	-2197.36377	262.74826	139.92332	-2150.80103	115.57973	173.13405	-2163.90942	116.15556	251.84676	-2074.43408	85.22618	205.27136	-2276.43457	48.55402	247.41003	-2306.00464	61.73356	208.80042	-2251.80591	40.15011	142.03160
1759	7.03200	-2324.71631	1017.48145	312.07147	-2508.26904	967.59076	326.79437	-2504.62500	611.54065	382.86295	-2532.38086	556.74176	374.54138	-2575.79639	640.91193	380.71503	-2595.10205	583.10748	372.82022	-2585.23779	490.88037	363.58160	-2590.93188	485.61481	251.54694	-2584.62549	300.31076	369.51160	-2605.95020	259.20041	366.36975	-2639.14575	324.34924	378.46280	-2654.81787	278.84555	375.99234	-2707.37012	117.67894	349.70886	-2725.16357	137.35037	274.15048	-2656.65747	59.18615	313.91522	-2855.22070	103.33203	371.98395	-2875.59863	135.13763	319.05106	-2860.39624	114.11818	279.91519	-2317.69849	1016.30389	200.82190	-2481.03027	969.66211	122.87186	-2266.49146	625.22302	134.34091	-2251.30933	566.65546	149.70778	-2324.71143	608.95856	110.43684	-2318.29883	547.93335	120.15356	-2296.14624	479.29517	142.55618	-2295.04517	501.95215	253.62703	-2159.28076	324.38770	145.44958	-2150.16919	278.32605	149.88783	-2217.88989	303.94000	134.59032	-2199.30688	263.29120	140.11966	-2151.52271	116.37148	173.32834	-2164.73999	116.90201	252.03146	-2074.86597	86.54244	205.54941	-2276.63306	48.56107	247.38791	-2306.35474	61.54755	208.71518	-2251.87305	40.19755	142.05908
1760	7.03600	-2330.62646	1016.25995	312.67047	-2514.25122	966.42462	326.92377	-2508.18311	609.55139	383.35419	-2535.48657	554.60321	375.06970	-2579.71045	638.47681	381.70425	-2598.54150	580.61090	373.77240	-2588.80957	488.89325	363.85709	-2594.22876	483.71497	251.60114	-2592.17896	298.57587	369.85364	0.00000	0.00000	0.00000	-2646.09839	323.77536	378.52136	-2662.73535	278.43832	376.02200	-2718.85010	118.37215	349.96216	-2736.01953	138.44498	274.23962	-2669.10986	58.64273	314.32483	-2866.79858	107.17470	371.01740	-2886.42651	139.37965	317.87845	-2871.14844	118.12895	278.91385	-2324.14697	1015.27686	201.75052	-2486.24121	968.87317	122.91926	-2271.07471	625.12738	134.83937	-2255.78027	566.82324	150.07266	-2328.72925	608.64417	110.37756	-2322.39526	547.64771	120.02792	-2299.99707	478.97638	142.51868	-2299.99536	501.23779	254.04645	-2161.78247	325.21811	145.80086	-2152.29785	279.24219	150.18913	-2220.77686	304.81735	134.18579	-2201.18872	263.68335	140.27219	-2152.18994	117.24399	173.50490	-2165.63208	117.64699	252.16788	-2075.54980	87.77979	205.68327	-2276.84595	48.52838	247.37779	-2306.70508	61.34177	208.65637	-2251.94702	40.23229	142.08459
1761	7.04000	-2336.90039	1014.88605	313.47339	-2520.29102	965.35254	326.99393	-2511.88354	607.72137	384.14703	-2538.99146	552.72705	376.00473	-2583.71069	636.07892	382.62228	-2602.05469	578.05078	374.63654	-2592.44214	486.97552	364.15744	-2597.48438	481.93683	251.76819	-2599.42432	296.99295	370.14566	-2622.26514	256.36301	366.79050	-2653.13379	323.22156	378.56177	-2670.37500	278.13339	376.07758	-2728.86060	119.16251	350.29443	-2745.42700	139.60443	274.10239	-2681.00073	58.28221	314.75806	-2878.57788	110.60326	370.21405	-2896.54102	143.54947	316.99420	-2881.39844	122.02781	277.95804	-2329.80542	1014.28424	202.46704	-2491.60864	968.08563	123.00789	-2275.80591	624.95721	135.24487	-2259.66919	566.34290	150.86694	-2333.45850	608.47327	110.54336	-2326.64087	547.35327	119.96871	-2304.34644	478.41711	142.43791	-2304.58423	500.80475	254.07071	-2164.47485	325.97003	146.09532	-2154.46045	280.18387	150.52406	-2221.62402	303.19733	135.28998	-2203.21948	264.14600	140.38785	-2152.99634	118.09838	173.62505	-2166.51855	118.48941	252.32179	-2076.13721	89.10583	205.85805	-2277.10864	48.53155	247.36256	-2307.03320	61.15212	208.62463	-2252.02832	40.26774	142.10822
